<mxfile host="app.diagrams.net" agent="Mozilla/5.0 (Windows NT 10.0; Win64; x64) AppleWebKit/537.36 (KHTML, like Gecko) Chrome/134.0.0.0 Safari/537.36" version="26.1.1">
  <diagram name="第 1 页" id="vO-5KL60WhVZvW-t5biG">
    <mxGraphModel dx="1195" dy="1784" grid="1" gridSize="10" guides="1" tooltips="1" connect="1" arrows="1" fold="1" page="1" pageScale="1" pageWidth="827" pageHeight="1169" math="0" shadow="0">
      <root>
        <mxCell id="0" />
        <mxCell id="1" parent="0" />
        <mxCell id="7dtAC1SlJE9wVKhIc8UQ-5" value="" style="edgeStyle=orthogonalEdgeStyle;rounded=0;orthogonalLoop=1;jettySize=auto;html=1;" parent="1" source="7dtAC1SlJE9wVKhIc8UQ-1" target="7dtAC1SlJE9wVKhIc8UQ-4" edge="1">
          <mxGeometry relative="1" as="geometry" />
        </mxCell>
        <mxCell id="7dtAC1SlJE9wVKhIc8UQ-1" value="开始" style="rounded=0;whiteSpace=wrap;html=1;fillColor=none;" parent="1" vertex="1">
          <mxGeometry x="310" y="160" width="100" height="30" as="geometry" />
        </mxCell>
        <mxCell id="7dtAC1SlJE9wVKhIc8UQ-7" value="Y" style="edgeStyle=orthogonalEdgeStyle;rounded=0;orthogonalLoop=1;jettySize=auto;html=1;" parent="1" source="7dtAC1SlJE9wVKhIc8UQ-4" target="7dtAC1SlJE9wVKhIc8UQ-6" edge="1">
          <mxGeometry relative="1" as="geometry" />
        </mxCell>
        <mxCell id="7dtAC1SlJE9wVKhIc8UQ-18" value="N" style="edgeStyle=orthogonalEdgeStyle;rounded=0;orthogonalLoop=1;jettySize=auto;html=1;entryX=1;entryY=0.5;entryDx=0;entryDy=0;" parent="1" source="7dtAC1SlJE9wVKhIc8UQ-4" target="7dtAC1SlJE9wVKhIc8UQ-16" edge="1">
          <mxGeometry x="-0.9107" relative="1" as="geometry">
            <Array as="points">
              <mxPoint x="490" y="260" />
              <mxPoint x="490" y="675" />
            </Array>
            <mxPoint as="offset" />
          </mxGeometry>
        </mxCell>
        <mxCell id="7dtAC1SlJE9wVKhIc8UQ-4" value="手机验证码校验" style="rhombus;whiteSpace=wrap;html=1;fillColor=none;" parent="1" vertex="1">
          <mxGeometry x="275" y="220" width="170" height="80" as="geometry" />
        </mxCell>
        <mxCell id="7dtAC1SlJE9wVKhIc8UQ-9" value="" style="edgeStyle=orthogonalEdgeStyle;rounded=0;orthogonalLoop=1;jettySize=auto;html=1;" parent="1" source="7dtAC1SlJE9wVKhIc8UQ-6" target="7dtAC1SlJE9wVKhIc8UQ-8" edge="1">
          <mxGeometry relative="1" as="geometry" />
        </mxCell>
        <mxCell id="7dtAC1SlJE9wVKhIc8UQ-6" value="密码加密" style="rounded=0;whiteSpace=wrap;html=1;fillColor=none;" parent="1" vertex="1">
          <mxGeometry x="310" y="350" width="100" height="30" as="geometry" />
        </mxCell>
        <mxCell id="7dtAC1SlJE9wVKhIc8UQ-11" value="Y" style="edgeStyle=orthogonalEdgeStyle;rounded=0;orthogonalLoop=1;jettySize=auto;html=1;" parent="1" source="7dtAC1SlJE9wVKhIc8UQ-8" target="7dtAC1SlJE9wVKhIc8UQ-10" edge="1">
          <mxGeometry relative="1" as="geometry" />
        </mxCell>
        <mxCell id="7dtAC1SlJE9wVKhIc8UQ-19" value="N" style="edgeStyle=orthogonalEdgeStyle;rounded=0;orthogonalLoop=1;jettySize=auto;html=1;entryX=1;entryY=0.5;entryDx=0;entryDy=0;" parent="1" source="7dtAC1SlJE9wVKhIc8UQ-8" target="7dtAC1SlJE9wVKhIc8UQ-16" edge="1">
          <mxGeometry x="-0.8529" relative="1" as="geometry">
            <Array as="points">
              <mxPoint x="490" y="460" />
              <mxPoint x="490" y="675" />
            </Array>
            <mxPoint as="offset" />
          </mxGeometry>
        </mxCell>
        <mxCell id="7dtAC1SlJE9wVKhIc8UQ-8" value="账号唯一性校验" style="rhombus;whiteSpace=wrap;html=1;fillColor=none;" parent="1" vertex="1">
          <mxGeometry x="275" y="420" width="170" height="80" as="geometry" />
        </mxCell>
        <mxCell id="7dtAC1SlJE9wVKhIc8UQ-15" value="" style="edgeStyle=orthogonalEdgeStyle;rounded=0;orthogonalLoop=1;jettySize=auto;html=1;" parent="1" source="7dtAC1SlJE9wVKhIc8UQ-10" target="7dtAC1SlJE9wVKhIc8UQ-14" edge="1">
          <mxGeometry relative="1" as="geometry" />
        </mxCell>
        <mxCell id="7dtAC1SlJE9wVKhIc8UQ-20" style="edgeStyle=orthogonalEdgeStyle;rounded=0;orthogonalLoop=1;jettySize=auto;html=1;strokeColor=#7EA6E0;" parent="1" source="7dtAC1SlJE9wVKhIc8UQ-10" target="7dtAC1SlJE9wVKhIc8UQ-13" edge="1">
          <mxGeometry relative="1" as="geometry" />
        </mxCell>
        <mxCell id="7dtAC1SlJE9wVKhIc8UQ-10" value="插入数据库" style="rounded=0;whiteSpace=wrap;html=1;fillColor=none;" parent="1" vertex="1">
          <mxGeometry x="310" y="540" width="100" height="30" as="geometry" />
        </mxCell>
        <mxCell id="7dtAC1SlJE9wVKhIc8UQ-12" value="" style="rounded=0;whiteSpace=wrap;html=1;fillColor=none;dashed=1;" parent="1" vertex="1">
          <mxGeometry x="30" y="340" width="210" height="170" as="geometry" />
        </mxCell>
        <mxCell id="7dtAC1SlJE9wVKhIc8UQ-13" value="account" style="rounded=0;whiteSpace=wrap;html=1;fillColor=#7EA6E0;" parent="1" vertex="1">
          <mxGeometry x="60" y="370" width="170" height="30" as="geometry" />
        </mxCell>
        <mxCell id="7dtAC1SlJE9wVKhIc8UQ-17" value="" style="edgeStyle=orthogonalEdgeStyle;rounded=0;orthogonalLoop=1;jettySize=auto;html=1;" parent="1" source="7dtAC1SlJE9wVKhIc8UQ-14" target="7dtAC1SlJE9wVKhIc8UQ-16" edge="1">
          <mxGeometry relative="1" as="geometry" />
        </mxCell>
        <mxCell id="7dtAC1SlJE9wVKhIc8UQ-14" value="新用户福利发放" style="rounded=0;whiteSpace=wrap;html=1;fillColor=none;" parent="1" vertex="1">
          <mxGeometry x="310" y="600" width="100" height="30" as="geometry" />
        </mxCell>
        <mxCell id="7dtAC1SlJE9wVKhIc8UQ-16" value="结束" style="rounded=0;whiteSpace=wrap;html=1;fillColor=none;" parent="1" vertex="1">
          <mxGeometry x="310" y="660" width="100" height="30" as="geometry" />
        </mxCell>
        <mxCell id="7dtAC1SlJE9wVKhIc8UQ-31" value="" style="edgeStyle=orthogonalEdgeStyle;rounded=0;orthogonalLoop=1;jettySize=auto;html=1;" parent="1" source="7dtAC1SlJE9wVKhIc8UQ-28" edge="1">
          <mxGeometry relative="1" as="geometry">
            <mxPoint x="779.9999999999998" y="341" as="targetPoint" />
          </mxGeometry>
        </mxCell>
        <mxCell id="7dtAC1SlJE9wVKhIc8UQ-28" value="开始" style="rounded=0;whiteSpace=wrap;html=1;fillColor=none;" parent="1" vertex="1">
          <mxGeometry x="730" y="270" width="100" height="30" as="geometry" />
        </mxCell>
        <mxCell id="7dtAC1SlJE9wVKhIc8UQ-36" style="edgeStyle=orthogonalEdgeStyle;rounded=0;orthogonalLoop=1;jettySize=auto;html=1;entryX=0;entryY=0.5;entryDx=0;entryDy=0;strokeColor=#7EA6E0;" parent="1" source="7dtAC1SlJE9wVKhIc8UQ-33" target="7dtAC1SlJE9wVKhIc8UQ-25" edge="1">
          <mxGeometry relative="1" as="geometry" />
        </mxCell>
        <mxCell id="7dtAC1SlJE9wVKhIc8UQ-43" value="" style="edgeStyle=orthogonalEdgeStyle;rounded=0;orthogonalLoop=1;jettySize=auto;html=1;" parent="1" source="7dtAC1SlJE9wVKhIc8UQ-33" target="7dtAC1SlJE9wVKhIc8UQ-40" edge="1">
          <mxGeometry relative="1" as="geometry" />
        </mxCell>
        <mxCell id="7dtAC1SlJE9wVKhIc8UQ-33" value="插入数据库" style="rounded=0;whiteSpace=wrap;html=1;fillColor=none;" parent="1" vertex="1">
          <mxGeometry x="730" y="340" width="100" height="30" as="geometry" />
        </mxCell>
        <mxCell id="7dtAC1SlJE9wVKhIc8UQ-40" value="结束" style="rounded=0;whiteSpace=wrap;html=1;fillColor=none;" parent="1" vertex="1">
          <mxGeometry x="730" y="410" width="100" height="30" as="geometry" />
        </mxCell>
        <mxCell id="7dtAC1SlJE9wVKhIc8UQ-24" value="" style="rounded=0;whiteSpace=wrap;html=1;fillColor=none;dashed=1;" parent="1" vertex="1">
          <mxGeometry x="900" y="320" width="199" height="70" as="geometry" />
        </mxCell>
        <mxCell id="7dtAC1SlJE9wVKhIc8UQ-25" value="account" style="rounded=0;whiteSpace=wrap;html=1;fillColor=#7EA6E0;" parent="1" vertex="1">
          <mxGeometry x="914.5" y="340" width="170" height="30" as="geometry" />
        </mxCell>
        <mxCell id="vSEwYygJi2QSESKw-jdO-1" value="" style="edgeStyle=orthogonalEdgeStyle;rounded=0;orthogonalLoop=1;jettySize=auto;html=1;" parent="1" source="vSEwYygJi2QSESKw-jdO-2" target="vSEwYygJi2QSESKw-jdO-5" edge="1">
          <mxGeometry relative="1" as="geometry" />
        </mxCell>
        <mxCell id="vSEwYygJi2QSESKw-jdO-2" value="开始" style="rounded=0;whiteSpace=wrap;html=1;fillColor=none;" parent="1" vertex="1">
          <mxGeometry x="1440" y="160" width="100" height="30" as="geometry" />
        </mxCell>
        <mxCell id="vSEwYygJi2QSESKw-jdO-3" value="Y" style="edgeStyle=orthogonalEdgeStyle;rounded=0;orthogonalLoop=1;jettySize=auto;html=1;" parent="1" source="vSEwYygJi2QSESKw-jdO-5" target="vSEwYygJi2QSESKw-jdO-7" edge="1">
          <mxGeometry relative="1" as="geometry" />
        </mxCell>
        <mxCell id="vSEwYygJi2QSESKw-jdO-30" value="N" style="edgeStyle=orthogonalEdgeStyle;rounded=0;orthogonalLoop=1;jettySize=auto;html=1;entryX=0.5;entryY=1;entryDx=0;entryDy=0;" parent="1" source="vSEwYygJi2QSESKw-jdO-5" target="vSEwYygJi2QSESKw-jdO-29" edge="1">
          <mxGeometry x="-0.4545" relative="1" as="geometry">
            <mxPoint as="offset" />
          </mxGeometry>
        </mxCell>
        <mxCell id="vSEwYygJi2QSESKw-jdO-5" value="根据手机查找账号" style="rhombus;whiteSpace=wrap;html=1;fillColor=none;" parent="1" vertex="1">
          <mxGeometry x="1405" y="220" width="170" height="80" as="geometry" />
        </mxCell>
        <mxCell id="vSEwYygJi2QSESKw-jdO-25" value="" style="edgeStyle=orthogonalEdgeStyle;rounded=0;orthogonalLoop=1;jettySize=auto;html=1;" parent="1" source="vSEwYygJi2QSESKw-jdO-7" target="vSEwYygJi2QSESKw-jdO-24" edge="1">
          <mxGeometry relative="1" as="geometry" />
        </mxCell>
        <mxCell id="vSEwYygJi2QSESKw-jdO-7" value="密码加密" style="rounded=0;whiteSpace=wrap;html=1;fillColor=none;" parent="1" vertex="1">
          <mxGeometry x="1440" y="350" width="100" height="30" as="geometry" />
        </mxCell>
        <mxCell id="vSEwYygJi2QSESKw-jdO-18" value="结束" style="rounded=0;whiteSpace=wrap;html=1;fillColor=none;" parent="1" vertex="1">
          <mxGeometry x="1440" y="600" width="100" height="30" as="geometry" />
        </mxCell>
        <mxCell id="vSEwYygJi2QSESKw-jdO-19" value="" style="rounded=0;whiteSpace=wrap;html=1;fillColor=none;dashed=1;" parent="1" vertex="1">
          <mxGeometry x="1170" y="330" width="199" height="70" as="geometry" />
        </mxCell>
        <mxCell id="vSEwYygJi2QSESKw-jdO-21" style="edgeStyle=orthogonalEdgeStyle;rounded=0;orthogonalLoop=1;jettySize=auto;html=1;entryX=0;entryY=0.5;entryDx=0;entryDy=0;strokeColor=#7EA6E0;" parent="1" source="vSEwYygJi2QSESKw-jdO-20" target="vSEwYygJi2QSESKw-jdO-5" edge="1">
          <mxGeometry relative="1" as="geometry">
            <Array as="points">
              <mxPoint x="1270" y="260" />
            </Array>
          </mxGeometry>
        </mxCell>
        <mxCell id="vSEwYygJi2QSESKw-jdO-20" value="account" style="rounded=0;whiteSpace=wrap;html=1;fillColor=#7EA6E0;" parent="1" vertex="1">
          <mxGeometry x="1184.5" y="350" width="170" height="30" as="geometry" />
        </mxCell>
        <mxCell id="vSEwYygJi2QSESKw-jdO-27" value="" style="edgeStyle=orthogonalEdgeStyle;rounded=0;orthogonalLoop=1;jettySize=auto;html=1;" parent="1" source="vSEwYygJi2QSESKw-jdO-23" target="vSEwYygJi2QSESKw-jdO-18" edge="1">
          <mxGeometry relative="1" as="geometry" />
        </mxCell>
        <mxCell id="vSEwYygJi2QSESKw-jdO-23" value="生成token" style="rounded=0;whiteSpace=wrap;html=1;fillColor=none;" parent="1" vertex="1">
          <mxGeometry x="1440" y="540" width="100" height="30" as="geometry" />
        </mxCell>
        <mxCell id="vSEwYygJi2QSESKw-jdO-26" value="N" style="edgeStyle=orthogonalEdgeStyle;rounded=0;orthogonalLoop=1;jettySize=auto;html=1;" parent="1" source="vSEwYygJi2QSESKw-jdO-24" target="vSEwYygJi2QSESKw-jdO-23" edge="1">
          <mxGeometry relative="1" as="geometry" />
        </mxCell>
        <mxCell id="vSEwYygJi2QSESKw-jdO-33" value="N" style="edgeStyle=orthogonalEdgeStyle;rounded=0;orthogonalLoop=1;jettySize=auto;html=1;entryX=0.5;entryY=1;entryDx=0;entryDy=0;" parent="1" source="vSEwYygJi2QSESKw-jdO-24" target="vSEwYygJi2QSESKw-jdO-29" edge="1">
          <mxGeometry x="-0.7465" relative="1" as="geometry">
            <mxPoint as="offset" />
          </mxGeometry>
        </mxCell>
        <mxCell id="vSEwYygJi2QSESKw-jdO-24" value="密码校验" style="rhombus;whiteSpace=wrap;html=1;fillColor=none;" parent="1" vertex="1">
          <mxGeometry x="1405" y="410" width="170" height="80" as="geometry" />
        </mxCell>
        <mxCell id="vSEwYygJi2QSESKw-jdO-31" style="edgeStyle=orthogonalEdgeStyle;rounded=0;orthogonalLoop=1;jettySize=auto;html=1;" parent="1" source="vSEwYygJi2QSESKw-jdO-29" target="vSEwYygJi2QSESKw-jdO-2" edge="1">
          <mxGeometry relative="1" as="geometry" />
        </mxCell>
        <mxCell id="vSEwYygJi2QSESKw-jdO-29" value="异常处理" style="rounded=0;whiteSpace=wrap;html=1;fillColor=none;" parent="1" vertex="1">
          <mxGeometry x="1620" y="160" width="100" height="30" as="geometry" />
        </mxCell>
        <mxCell id="hxnyZ7wzCu-Sgj7sRI47-22" style="edgeStyle=none;rounded=0;orthogonalLoop=1;jettySize=auto;html=1;" parent="1" source="hxnyZ7wzCu-Sgj7sRI47-5" target="hxnyZ7wzCu-Sgj7sRI47-10" edge="1">
          <mxGeometry relative="1" as="geometry" />
        </mxCell>
        <mxCell id="hxnyZ7wzCu-Sgj7sRI47-5" value="product_order_0" style="rounded=0;whiteSpace=wrap;html=1;fillColor=#7EA6E0;" parent="1" vertex="1">
          <mxGeometry x="1960" y="-10" width="130" height="30" as="geometry" />
        </mxCell>
        <mxCell id="hxnyZ7wzCu-Sgj7sRI47-10" value="product_order_item_0" style="rounded=0;whiteSpace=wrap;html=1;fillColor=#7EA6E0;" parent="1" vertex="1">
          <mxGeometry x="2160" y="-10" width="130" height="30" as="geometry" />
        </mxCell>
        <mxCell id="hxnyZ7wzCu-Sgj7sRI47-23" style="edgeStyle=none;rounded=0;orthogonalLoop=1;jettySize=auto;html=1;entryX=0;entryY=0.5;entryDx=0;entryDy=0;" parent="1" source="hxnyZ7wzCu-Sgj7sRI47-11" target="hxnyZ7wzCu-Sgj7sRI47-13" edge="1">
          <mxGeometry relative="1" as="geometry" />
        </mxCell>
        <mxCell id="hxnyZ7wzCu-Sgj7sRI47-11" value="product_order_1" style="rounded=0;whiteSpace=wrap;html=1;fillColor=#7EA6E0;" parent="1" vertex="1">
          <mxGeometry x="1960" y="60" width="130" height="30" as="geometry" />
        </mxCell>
        <mxCell id="hxnyZ7wzCu-Sgj7sRI47-13" value="product_order_item_1" style="rounded=0;whiteSpace=wrap;html=1;fillColor=#7EA6E0;" parent="1" vertex="1">
          <mxGeometry x="2160" y="60" width="130" height="30" as="geometry" />
        </mxCell>
        <mxCell id="hxnyZ7wzCu-Sgj7sRI47-19" value="分片规则相同：order_id" style="text;html=1;align=center;verticalAlign=middle;resizable=0;points=[];autosize=1;strokeColor=none;fillColor=none;fontStyle=1" parent="1" vertex="1">
          <mxGeometry x="1940" y="30" width="150" height="30" as="geometry" />
        </mxCell>
        <mxCell id="hxnyZ7wzCu-Sgj7sRI47-1" value="" style="shape=cylinder3;whiteSpace=wrap;html=1;boundedLbl=1;backgroundOutline=1;size=15;fillColor=none;dashed=1;" parent="1" vertex="1">
          <mxGeometry x="1868" y="160" width="192" height="190" as="geometry" />
        </mxCell>
        <mxCell id="hxnyZ7wzCu-Sgj7sRI47-2" value="product_order_0" style="rounded=0;whiteSpace=wrap;html=1;fillColor=#7EA6E0;" parent="1" vertex="1">
          <mxGeometry x="1899" y="200" width="130" height="30" as="geometry" />
        </mxCell>
        <mxCell id="hxnyZ7wzCu-Sgj7sRI47-3" value="product_order_item_0" style="rounded=0;whiteSpace=wrap;html=1;fillColor=#7EA6E0;" parent="1" vertex="1">
          <mxGeometry x="1899" y="250" width="130" height="30" as="geometry" />
        </mxCell>
        <mxCell id="hxnyZ7wzCu-Sgj7sRI47-24" value="通用城市字典表" style="rounded=0;whiteSpace=wrap;html=1;fillColor=#D4E1F5;" parent="1" vertex="1">
          <mxGeometry x="1899" y="300" width="130" height="30" as="geometry" />
        </mxCell>
        <mxCell id="hxnyZ7wzCu-Sgj7sRI47-25" value="" style="shape=cylinder3;whiteSpace=wrap;html=1;boundedLbl=1;backgroundOutline=1;size=15;fillColor=none;dashed=1;" parent="1" vertex="1">
          <mxGeometry x="2110" y="160" width="192" height="190" as="geometry" />
        </mxCell>
        <mxCell id="hxnyZ7wzCu-Sgj7sRI47-26" value="product_order_1" style="rounded=0;whiteSpace=wrap;html=1;fillColor=#7EA6E0;" parent="1" vertex="1">
          <mxGeometry x="2141" y="200" width="130" height="30" as="geometry" />
        </mxCell>
        <mxCell id="hxnyZ7wzCu-Sgj7sRI47-27" value="product_order_item_1" style="rounded=0;whiteSpace=wrap;html=1;fillColor=#7EA6E0;" parent="1" vertex="1">
          <mxGeometry x="2141" y="250" width="130" height="30" as="geometry" />
        </mxCell>
        <mxCell id="hxnyZ7wzCu-Sgj7sRI47-28" value="通用城市字典表" style="rounded=0;whiteSpace=wrap;html=1;fillColor=#D4E1F5;" parent="1" vertex="1">
          <mxGeometry x="2141" y="300" width="130" height="30" as="geometry" />
        </mxCell>
        <mxCell id="hxnyZ7wzCu-Sgj7sRI47-37" value="" style="group;align=center;" parent="1" vertex="1" connectable="0">
          <mxGeometry x="2490" y="-120" width="290" height="410" as="geometry" />
        </mxCell>
        <mxCell id="hxnyZ7wzCu-Sgj7sRI47-29" value="" style="rounded=0;whiteSpace=wrap;html=1;fillColor=none;" parent="hxnyZ7wzCu-Sgj7sRI47-37" vertex="1">
          <mxGeometry y="30" width="290" height="380" as="geometry" />
        </mxCell>
        <mxCell id="hxnyZ7wzCu-Sgj7sRI47-30" value="代码编译阶段" style="text;html=1;align=center;verticalAlign=middle;resizable=0;points=[];autosize=1;strokeColor=none;fillColor=none;fontStyle=1" parent="hxnyZ7wzCu-Sgj7sRI47-37" vertex="1">
          <mxGeometry x="95" width="100" height="30" as="geometry" />
        </mxCell>
        <mxCell id="hxnyZ7wzCu-Sgj7sRI47-46" style="edgeStyle=elbowEdgeStyle;rounded=0;orthogonalLoop=1;jettySize=auto;html=1;entryX=0.5;entryY=0;entryDx=0;entryDy=0;" parent="hxnyZ7wzCu-Sgj7sRI47-37" source="hxnyZ7wzCu-Sgj7sRI47-40" target="oDU6o3JR0RXQvtxgKEKO-12" edge="1">
          <mxGeometry relative="1" as="geometry">
            <mxPoint x="132" y="200" as="targetPoint" />
          </mxGeometry>
        </mxCell>
        <mxCell id="hxnyZ7wzCu-Sgj7sRI47-47" value="Java编译" style="edgeLabel;html=1;align=center;verticalAlign=middle;resizable=0;points=[];" parent="hxnyZ7wzCu-Sgj7sRI47-46" vertex="1" connectable="0">
          <mxGeometry x="-0.1613" relative="1" as="geometry">
            <mxPoint as="offset" />
          </mxGeometry>
        </mxCell>
        <mxCell id="hxnyZ7wzCu-Sgj7sRI47-40" value="&lt;b&gt;Class Cat{}&lt;/b&gt;&lt;div&gt;&lt;b&gt;&lt;br&gt;&lt;/b&gt;&lt;/div&gt;&lt;div&gt;&lt;b&gt;Class Dog{}&lt;/b&gt;&lt;/div&gt;" style="rounded=0;whiteSpace=wrap;html=1;align=center;fillColor=#D4E1F5;" parent="hxnyZ7wzCu-Sgj7sRI47-37" vertex="1">
          <mxGeometry x="71.52" y="50" width="130" height="80" as="geometry" />
        </mxCell>
        <mxCell id="oDU6o3JR0RXQvtxgKEKO-2" value="Dag 字节码文件" style="rounded=0;whiteSpace=wrap;html=1;align=center;fillColor=#D4E1F5;" parent="hxnyZ7wzCu-Sgj7sRI47-37" vertex="1">
          <mxGeometry x="71.52" y="280" width="120" height="60" as="geometry" />
        </mxCell>
        <mxCell id="oDU6o3JR0RXQvtxgKEKO-12" value="Cat 字节码文件" style="rounded=0;whiteSpace=wrap;html=1;align=center;fillColor=#D4E1F5;" parent="hxnyZ7wzCu-Sgj7sRI47-37" vertex="1">
          <mxGeometry x="71.51999999999998" y="210" width="120" height="60" as="geometry" />
        </mxCell>
        <mxCell id="hxnyZ7wzCu-Sgj7sRI47-38" value="" style="group" parent="1" vertex="1" connectable="0">
          <mxGeometry x="2880" y="-120" width="290" height="410" as="geometry" />
        </mxCell>
        <mxCell id="hxnyZ7wzCu-Sgj7sRI47-31" value="" style="rounded=0;whiteSpace=wrap;html=1;fillColor=none;" parent="hxnyZ7wzCu-Sgj7sRI47-38" vertex="1">
          <mxGeometry y="30" width="290" height="380" as="geometry" />
        </mxCell>
        <mxCell id="hxnyZ7wzCu-Sgj7sRI47-32" value="Class类加载阶段" style="text;html=1;align=center;verticalAlign=middle;resizable=0;points=[];autosize=1;strokeColor=none;fillColor=none;fontStyle=1" parent="hxnyZ7wzCu-Sgj7sRI47-38" vertex="1">
          <mxGeometry x="90" width="110" height="30" as="geometry" />
        </mxCell>
        <mxCell id="hxnyZ7wzCu-Sgj7sRI47-60" value="" style="rounded=0;whiteSpace=wrap;html=1;align=left;fillColor=#D4E1F5;" parent="hxnyZ7wzCu-Sgj7sRI47-38" vertex="1">
          <mxGeometry x="47.5" y="50" width="195" height="150" as="geometry" />
        </mxCell>
        <mxCell id="hxnyZ7wzCu-Sgj7sRI47-61" value="&lt;b&gt;Cat 的 Class类对象（堆）&lt;/b&gt;" style="text;html=1;align=center;verticalAlign=middle;resizable=0;points=[];autosize=1;strokeColor=none;fillColor=none;" parent="hxnyZ7wzCu-Sgj7sRI47-38" vertex="1">
          <mxGeometry x="40" y="50" width="170" height="30" as="geometry" />
        </mxCell>
        <mxCell id="hxnyZ7wzCu-Sgj7sRI47-62" value="&lt;b&gt;成员变量 Filed[] fileds&lt;/b&gt;" style="rounded=0;whiteSpace=wrap;html=1;fillColor=#7EA6E0;" parent="hxnyZ7wzCu-Sgj7sRI47-38" vertex="1">
          <mxGeometry x="70" y="80" width="160" height="30" as="geometry" />
        </mxCell>
        <mxCell id="hxnyZ7wzCu-Sgj7sRI47-63" value="&lt;b&gt;构造器 Constructor[] cons&lt;/b&gt;" style="rounded=0;whiteSpace=wrap;html=1;fillColor=#7EA6E0;" parent="hxnyZ7wzCu-Sgj7sRI47-38" vertex="1">
          <mxGeometry x="70" y="120" width="160" height="30" as="geometry" />
        </mxCell>
        <mxCell id="hxnyZ7wzCu-Sgj7sRI47-64" value="&lt;b&gt;成员方法 Method[] ms&lt;/b&gt;" style="rounded=0;whiteSpace=wrap;html=1;fillColor=#7EA6E0;" parent="hxnyZ7wzCu-Sgj7sRI47-38" vertex="1">
          <mxGeometry x="70" y="160" width="160" height="30" as="geometry" />
        </mxCell>
        <mxCell id="oDU6o3JR0RXQvtxgKEKO-18" value="" style="rounded=0;whiteSpace=wrap;html=1;align=left;fillColor=#D4E1F5;" parent="hxnyZ7wzCu-Sgj7sRI47-38" vertex="1">
          <mxGeometry x="47.5" y="220" width="195" height="150" as="geometry" />
        </mxCell>
        <mxCell id="oDU6o3JR0RXQvtxgKEKO-19" value="&lt;b&gt;Dog 的 Class类对象（堆）&lt;/b&gt;" style="text;html=1;align=center;verticalAlign=middle;resizable=0;points=[];autosize=1;strokeColor=none;fillColor=none;" parent="hxnyZ7wzCu-Sgj7sRI47-38" vertex="1">
          <mxGeometry x="40" y="220" width="170" height="30" as="geometry" />
        </mxCell>
        <mxCell id="oDU6o3JR0RXQvtxgKEKO-20" value="&lt;b&gt;成员变量 Filed[] fileds&lt;/b&gt;" style="rounded=0;whiteSpace=wrap;html=1;fillColor=#7EA6E0;" parent="hxnyZ7wzCu-Sgj7sRI47-38" vertex="1">
          <mxGeometry x="70" y="250" width="160" height="30" as="geometry" />
        </mxCell>
        <mxCell id="oDU6o3JR0RXQvtxgKEKO-21" value="&lt;b&gt;构造器 Constructor[] cons&lt;/b&gt;" style="rounded=0;whiteSpace=wrap;html=1;fillColor=#7EA6E0;" parent="hxnyZ7wzCu-Sgj7sRI47-38" vertex="1">
          <mxGeometry x="70" y="290" width="160" height="30" as="geometry" />
        </mxCell>
        <mxCell id="oDU6o3JR0RXQvtxgKEKO-22" value="&lt;b&gt;成员方法 Method[] ms&lt;/b&gt;" style="rounded=0;whiteSpace=wrap;html=1;fillColor=#7EA6E0;" parent="hxnyZ7wzCu-Sgj7sRI47-38" vertex="1">
          <mxGeometry x="70" y="330" width="160" height="30" as="geometry" />
        </mxCell>
        <mxCell id="hxnyZ7wzCu-Sgj7sRI47-39" value="" style="group" parent="1" vertex="1" connectable="0">
          <mxGeometry x="3210" y="-120" width="290" height="410" as="geometry" />
        </mxCell>
        <mxCell id="hxnyZ7wzCu-Sgj7sRI47-33" value="" style="rounded=0;whiteSpace=wrap;html=1;fillColor=none;" parent="hxnyZ7wzCu-Sgj7sRI47-39" vertex="1">
          <mxGeometry y="30" width="290" height="380" as="geometry" />
        </mxCell>
        <mxCell id="hxnyZ7wzCu-Sgj7sRI47-34" value="Runtime运行阶段" style="text;html=1;align=center;verticalAlign=middle;resizable=0;points=[];autosize=1;strokeColor=none;fillColor=none;fontStyle=1" parent="hxnyZ7wzCu-Sgj7sRI47-39" vertex="1">
          <mxGeometry x="85" width="120" height="30" as="geometry" />
        </mxCell>
        <mxCell id="hxnyZ7wzCu-Sgj7sRI47-78" value="&lt;div&gt;&lt;b&gt;Cat cat = new Cat()&lt;/b&gt;&lt;/div&gt;" style="rounded=0;whiteSpace=wrap;html=1;align=center;fillColor=#D4E1F5;" parent="hxnyZ7wzCu-Sgj7sRI47-39" vertex="1">
          <mxGeometry x="50" y="85" width="120" height="50" as="geometry" />
        </mxCell>
        <mxCell id="hxnyZ7wzCu-Sgj7sRI47-79" value="&lt;b&gt;&lt;br&gt;&lt;/b&gt;" style="text;html=1;align=center;verticalAlign=middle;resizable=0;points=[];autosize=1;strokeColor=none;fillColor=none;" parent="hxnyZ7wzCu-Sgj7sRI47-39" vertex="1">
          <mxGeometry x="90" y="95" width="20" height="30" as="geometry" />
        </mxCell>
        <mxCell id="oDU6o3JR0RXQvtxgKEKO-15" value="&lt;div&gt;&lt;b&gt;Cat cat1 = new Cat()&lt;/b&gt;&lt;/div&gt;" style="rounded=0;whiteSpace=wrap;html=1;align=center;fillColor=#D4E1F5;" parent="hxnyZ7wzCu-Sgj7sRI47-39" vertex="1">
          <mxGeometry x="50" y="160" width="120" height="50" as="geometry" />
        </mxCell>
        <mxCell id="oDU6o3JR0RXQvtxgKEKO-29" value="&lt;div&gt;&lt;b&gt;Dog dog = new Dog()&lt;/b&gt;&lt;/div&gt;" style="rounded=0;whiteSpace=wrap;html=1;align=center;fillColor=#D4E1F5;" parent="hxnyZ7wzCu-Sgj7sRI47-39" vertex="1">
          <mxGeometry x="40" y="250" width="140" height="50" as="geometry" />
        </mxCell>
        <mxCell id="hxnyZ7wzCu-Sgj7sRI47-77" style="edgeStyle=elbowEdgeStyle;rounded=0;orthogonalLoop=1;jettySize=auto;html=1;entryX=0;entryY=0.5;entryDx=0;entryDy=0;" parent="1" source="hxnyZ7wzCu-Sgj7sRI47-74" target="hxnyZ7wzCu-Sgj7sRI47-60" edge="1">
          <mxGeometry relative="1" as="geometry" />
        </mxCell>
        <mxCell id="hxnyZ7wzCu-Sgj7sRI47-74" value="类加载器&lt;br&gt;ClassLoader" style="rounded=0;whiteSpace=wrap;html=1;fillColor=#D5E8D4;" parent="1" vertex="1">
          <mxGeometry x="2790" y="105" width="80" height="30" as="geometry" />
        </mxCell>
        <mxCell id="oDU6o3JR0RXQvtxgKEKO-1" style="edgeStyle=orthogonalEdgeStyle;rounded=0;orthogonalLoop=1;jettySize=auto;html=1;entryX=0.989;entryY=0.404;entryDx=0;entryDy=0;entryPerimeter=0;" parent="1" source="hxnyZ7wzCu-Sgj7sRI47-78" target="hxnyZ7wzCu-Sgj7sRI47-60" edge="1">
          <mxGeometry relative="1" as="geometry" />
        </mxCell>
        <mxCell id="oDU6o3JR0RXQvtxgKEKO-4" style="edgeStyle=orthogonalEdgeStyle;rounded=0;orthogonalLoop=1;jettySize=auto;html=1;entryX=0;entryY=0.5;entryDx=0;entryDy=0;" parent="1" source="oDU6o3JR0RXQvtxgKEKO-2" target="hxnyZ7wzCu-Sgj7sRI47-74" edge="1">
          <mxGeometry relative="1" as="geometry" />
        </mxCell>
        <mxCell id="oDU6o3JR0RXQvtxgKEKO-13" style="edgeStyle=orthogonalEdgeStyle;rounded=0;orthogonalLoop=1;jettySize=auto;html=1;entryX=0;entryY=0.5;entryDx=0;entryDy=0;" parent="1" source="oDU6o3JR0RXQvtxgKEKO-12" target="hxnyZ7wzCu-Sgj7sRI47-74" edge="1">
          <mxGeometry relative="1" as="geometry" />
        </mxCell>
        <mxCell id="oDU6o3JR0RXQvtxgKEKO-16" style="edgeStyle=orthogonalEdgeStyle;rounded=0;orthogonalLoop=1;jettySize=auto;html=1;entryX=0.987;entryY=0.4;entryDx=0;entryDy=0;entryPerimeter=0;" parent="1" source="oDU6o3JR0RXQvtxgKEKO-15" target="hxnyZ7wzCu-Sgj7sRI47-60" edge="1">
          <mxGeometry relative="1" as="geometry" />
        </mxCell>
        <mxCell id="oDU6o3JR0RXQvtxgKEKO-30" style="edgeStyle=orthogonalEdgeStyle;rounded=0;orthogonalLoop=1;jettySize=auto;html=1;entryX=0.997;entryY=0.369;entryDx=0;entryDy=0;entryPerimeter=0;" parent="1" source="oDU6o3JR0RXQvtxgKEKO-29" target="oDU6o3JR0RXQvtxgKEKO-18" edge="1">
          <mxGeometry relative="1" as="geometry" />
        </mxCell>
        <mxCell id="oDU6o3JR0RXQvtxgKEKO-31" value="Class.forName()" style="text;html=1;align=center;verticalAlign=middle;resizable=0;points=[];autosize=1;strokeColor=none;fillColor=none;fontStyle=1" parent="1" vertex="1">
          <mxGeometry x="2560" y="290" width="110" height="30" as="geometry" />
        </mxCell>
        <mxCell id="oDU6o3JR0RXQvtxgKEKO-32" value="类.Class" style="text;html=1;align=center;verticalAlign=middle;resizable=0;points=[];autosize=1;strokeColor=none;fillColor=none;fontStyle=1" parent="1" vertex="1">
          <mxGeometry x="2980" y="290" width="70" height="30" as="geometry" />
        </mxCell>
        <mxCell id="oDU6o3JR0RXQvtxgKEKO-33" value="对象.Class" style="text;html=1;align=center;verticalAlign=middle;resizable=0;points=[];autosize=1;strokeColor=none;fillColor=none;fontStyle=1" parent="1" vertex="1">
          <mxGeometry x="3285" y="290" width="80" height="30" as="geometry" />
        </mxCell>
        <mxCell id="oDU6o3JR0RXQvtxgKEKO-34" value="类加载器获取&lt;br&gt;Class对象" style="text;html=1;align=center;verticalAlign=middle;resizable=0;points=[];autosize=1;strokeColor=none;fillColor=none;fontStyle=1" parent="1" vertex="1">
          <mxGeometry x="2780" y="145" width="100" height="40" as="geometry" />
        </mxCell>
        <mxCell id="2Ji5Jr_jotGqNG5A1SUb-39" style="edgeStyle=orthogonalEdgeStyle;rounded=0;orthogonalLoop=1;jettySize=auto;html=1;entryX=0;entryY=0.5;entryDx=0;entryDy=0;" edge="1" parent="1" source="2Ji5Jr_jotGqNG5A1SUb-16" target="2Ji5Jr_jotGqNG5A1SUb-19">
          <mxGeometry relative="1" as="geometry" />
        </mxCell>
        <mxCell id="2Ji5Jr_jotGqNG5A1SUb-16" value="用户-1" style="shape=umlActor;verticalLabelPosition=bottom;verticalAlign=top;html=1;outlineConnect=0;" vertex="1" parent="1">
          <mxGeometry x="930" y="-390" width="30" height="60" as="geometry" />
        </mxCell>
        <mxCell id="2Ji5Jr_jotGqNG5A1SUb-40" style="edgeStyle=orthogonalEdgeStyle;rounded=0;orthogonalLoop=1;jettySize=auto;html=1;entryX=0;entryY=0.5;entryDx=0;entryDy=0;" edge="1" parent="1" source="2Ji5Jr_jotGqNG5A1SUb-17" target="2Ji5Jr_jotGqNG5A1SUb-19">
          <mxGeometry relative="1" as="geometry" />
        </mxCell>
        <mxCell id="2Ji5Jr_jotGqNG5A1SUb-17" value="用户-2" style="shape=umlActor;verticalLabelPosition=bottom;verticalAlign=top;html=1;outlineConnect=0;" vertex="1" parent="1">
          <mxGeometry x="930" y="-285" width="30" height="60" as="geometry" />
        </mxCell>
        <mxCell id="2Ji5Jr_jotGqNG5A1SUb-41" style="edgeStyle=orthogonalEdgeStyle;rounded=0;orthogonalLoop=1;jettySize=auto;html=1;" edge="1" parent="1" source="2Ji5Jr_jotGqNG5A1SUb-18" target="2Ji5Jr_jotGqNG5A1SUb-19">
          <mxGeometry relative="1" as="geometry" />
        </mxCell>
        <mxCell id="2Ji5Jr_jotGqNG5A1SUb-18" value="用户-3" style="shape=umlActor;verticalLabelPosition=bottom;verticalAlign=top;html=1;outlineConnect=0;" vertex="1" parent="1">
          <mxGeometry x="930" y="-190" width="30" height="60" as="geometry" />
        </mxCell>
        <mxCell id="2Ji5Jr_jotGqNG5A1SUb-38" style="edgeStyle=orthogonalEdgeStyle;rounded=0;orthogonalLoop=1;jettySize=auto;html=1;entryX=0;entryY=0.5;entryDx=0;entryDy=0;" edge="1" parent="1" source="2Ji5Jr_jotGqNG5A1SUb-19" target="2Ji5Jr_jotGqNG5A1SUb-27">
          <mxGeometry relative="1" as="geometry" />
        </mxCell>
        <mxCell id="2Ji5Jr_jotGqNG5A1SUb-19" value="" style="rounded=0;whiteSpace=wrap;html=1;fillColor=none;dashed=1;" vertex="1" parent="1">
          <mxGeometry x="1030" y="-390" width="110" height="270" as="geometry" />
        </mxCell>
        <mxCell id="2Ji5Jr_jotGqNG5A1SUb-20" value="核心线程-1" style="rounded=0;whiteSpace=wrap;html=1;fillColor=#D5E8D4;" vertex="1" parent="1">
          <mxGeometry x="1040" y="-370" width="90" height="50" as="geometry" />
        </mxCell>
        <mxCell id="2Ji5Jr_jotGqNG5A1SUb-22" value="核心线程-2" style="rounded=0;whiteSpace=wrap;html=1;fillColor=#D5E8D4;" vertex="1" parent="1">
          <mxGeometry x="1040" y="-310" width="90" height="50" as="geometry" />
        </mxCell>
        <mxCell id="2Ji5Jr_jotGqNG5A1SUb-23" value="核心线程-3" style="rounded=0;whiteSpace=wrap;html=1;fillColor=#D5E8D4;" vertex="1" parent="1">
          <mxGeometry x="1040" y="-250" width="90" height="50" as="geometry" />
        </mxCell>
        <mxCell id="2Ji5Jr_jotGqNG5A1SUb-24" value="非核心线程" style="rounded=0;whiteSpace=wrap;html=1;fillColor=none;" vertex="1" parent="1">
          <mxGeometry x="1040" y="-190" width="90" height="50" as="geometry" />
        </mxCell>
        <mxCell id="2Ji5Jr_jotGqNG5A1SUb-53" style="edgeStyle=orthogonalEdgeStyle;rounded=0;orthogonalLoop=1;jettySize=auto;html=1;" edge="1" parent="1" source="2Ji5Jr_jotGqNG5A1SUb-27" target="2Ji5Jr_jotGqNG5A1SUb-32">
          <mxGeometry relative="1" as="geometry" />
        </mxCell>
        <mxCell id="2Ji5Jr_jotGqNG5A1SUb-54" value="随机" style="edgeLabel;html=1;align=center;verticalAlign=middle;resizable=0;points=[];" vertex="1" connectable="0" parent="2Ji5Jr_jotGqNG5A1SUb-53">
          <mxGeometry x="-0.2222" relative="1" as="geometry">
            <mxPoint as="offset" />
          </mxGeometry>
        </mxCell>
        <mxCell id="2Ji5Jr_jotGqNG5A1SUb-27" value="" style="rounded=0;whiteSpace=wrap;html=1;fillColor=none;dashed=1;" vertex="1" parent="1">
          <mxGeometry x="1220" y="-390" width="110" height="270" as="geometry" />
        </mxCell>
        <mxCell id="2Ji5Jr_jotGqNG5A1SUb-28" value="用户-1 线程" style="rounded=0;whiteSpace=wrap;html=1;fillColor=none;" vertex="1" parent="1">
          <mxGeometry x="1230" y="-370" width="90" height="50" as="geometry" />
        </mxCell>
        <mxCell id="2Ji5Jr_jotGqNG5A1SUb-29" value="用户-2 线程" style="rounded=0;whiteSpace=wrap;html=1;fillColor=none;" vertex="1" parent="1">
          <mxGeometry x="1230" y="-310" width="90" height="50" as="geometry" />
        </mxCell>
        <mxCell id="2Ji5Jr_jotGqNG5A1SUb-30" value="用户-3 线程" style="rounded=0;whiteSpace=wrap;html=1;fillColor=none;" vertex="1" parent="1">
          <mxGeometry x="1230" y="-250" width="90" height="50" as="geometry" />
        </mxCell>
        <mxCell id="2Ji5Jr_jotGqNG5A1SUb-58" style="edgeStyle=orthogonalEdgeStyle;rounded=0;orthogonalLoop=1;jettySize=auto;html=1;" edge="1" parent="1" source="2Ji5Jr_jotGqNG5A1SUb-32" target="2Ji5Jr_jotGqNG5A1SUb-56">
          <mxGeometry relative="1" as="geometry" />
        </mxCell>
        <mxCell id="2Ji5Jr_jotGqNG5A1SUb-59" value="执行任务" style="edgeLabel;html=1;align=center;verticalAlign=middle;resizable=0;points=[];" vertex="1" connectable="0" parent="2Ji5Jr_jotGqNG5A1SUb-58">
          <mxGeometry x="-0.1579" y="1" relative="1" as="geometry">
            <mxPoint as="offset" />
          </mxGeometry>
        </mxCell>
        <mxCell id="2Ji5Jr_jotGqNG5A1SUb-32" value="CPU" style="sketch=0;pointerEvents=1;shadow=0;dashed=0;html=1;strokeColor=none;fillColor=#434445;aspect=fixed;labelPosition=center;verticalLabelPosition=bottom;verticalAlign=top;align=center;outlineConnect=0;shape=mxgraph.vvd.cpu;" vertex="1" parent="1">
          <mxGeometry x="1465" y="-280" width="50" height="50" as="geometry" />
        </mxCell>
        <mxCell id="2Ji5Jr_jotGqNG5A1SUb-33" value="线程组" style="text;html=1;align=center;verticalAlign=middle;resizable=0;points=[];autosize=1;strokeColor=none;fillColor=none;" vertex="1" parent="1">
          <mxGeometry x="1245" y="-420" width="60" height="30" as="geometry" />
        </mxCell>
        <mxCell id="2Ji5Jr_jotGqNG5A1SUb-34" value="线程池" style="text;html=1;align=center;verticalAlign=middle;resizable=0;points=[];autosize=1;strokeColor=none;fillColor=none;" vertex="1" parent="1">
          <mxGeometry x="1055" y="-420" width="60" height="30" as="geometry" />
        </mxCell>
        <mxCell id="2Ji5Jr_jotGqNG5A1SUb-43" value="用户-4 线程" style="rounded=0;whiteSpace=wrap;html=1;fillColor=none;" vertex="1" parent="1">
          <mxGeometry x="1230" y="-185" width="90" height="50" as="geometry" />
        </mxCell>
        <mxCell id="2Ji5Jr_jotGqNG5A1SUb-50" value="" style="group" vertex="1" connectable="0" parent="1">
          <mxGeometry x="910" y="-50" width="300" height="80" as="geometry" />
        </mxCell>
        <mxCell id="2Ji5Jr_jotGqNG5A1SUb-25" value="用户-4" style="shape=umlActor;verticalLabelPosition=bottom;verticalAlign=top;html=1;outlineConnect=0;" vertex="1" parent="2Ji5Jr_jotGqNG5A1SUb-50">
          <mxGeometry x="20" y="5" width="30" height="50" as="geometry" />
        </mxCell>
        <mxCell id="2Ji5Jr_jotGqNG5A1SUb-26" value="" style="rounded=0;whiteSpace=wrap;html=1;fillColor=none;dashed=1;" vertex="1" parent="2Ji5Jr_jotGqNG5A1SUb-50">
          <mxGeometry width="300" height="80" as="geometry" />
        </mxCell>
        <mxCell id="2Ji5Jr_jotGqNG5A1SUb-45" value="用户-5" style="shape=umlActor;verticalLabelPosition=bottom;verticalAlign=top;html=1;outlineConnect=0;" vertex="1" parent="2Ji5Jr_jotGqNG5A1SUb-50">
          <mxGeometry x="80" y="5" width="30" height="50" as="geometry" />
        </mxCell>
        <mxCell id="2Ji5Jr_jotGqNG5A1SUb-46" value="用户-6" style="shape=umlActor;verticalLabelPosition=bottom;verticalAlign=top;html=1;outlineConnect=0;" vertex="1" parent="2Ji5Jr_jotGqNG5A1SUb-50">
          <mxGeometry x="230" y="5" width="30" height="50" as="geometry" />
        </mxCell>
        <mxCell id="2Ji5Jr_jotGqNG5A1SUb-47" value="&lt;b&gt;..............&lt;/b&gt;" style="text;html=1;align=center;verticalAlign=middle;resizable=0;points=[];autosize=1;strokeColor=none;fillColor=none;" vertex="1" parent="2Ji5Jr_jotGqNG5A1SUb-50">
          <mxGeometry x="140" y="10" width="70" height="30" as="geometry" />
        </mxCell>
        <mxCell id="2Ji5Jr_jotGqNG5A1SUb-52" value="当等待队列满时，线程池新增“非核心线程”" style="text;html=1;align=center;verticalAlign=middle;resizable=0;points=[];autosize=1;strokeColor=none;fillColor=none;fontStyle=1" vertex="1" parent="1">
          <mxGeometry x="935" y="-80" width="250" height="30" as="geometry" />
        </mxCell>
        <mxCell id="2Ji5Jr_jotGqNG5A1SUb-60" style="edgeStyle=orthogonalEdgeStyle;rounded=0;orthogonalLoop=1;jettySize=auto;html=1;entryX=0.5;entryY=1;entryDx=0;entryDy=0;" edge="1" parent="1" source="2Ji5Jr_jotGqNG5A1SUb-56" target="2Ji5Jr_jotGqNG5A1SUb-19">
          <mxGeometry relative="1" as="geometry">
            <Array as="points">
              <mxPoint x="1640" y="-100" />
              <mxPoint x="1085" y="-100" />
            </Array>
          </mxGeometry>
        </mxCell>
        <mxCell id="2Ji5Jr_jotGqNG5A1SUb-61" value="线程回收" style="edgeLabel;html=1;align=center;verticalAlign=middle;resizable=0;points=[];fontStyle=1" vertex="1" connectable="0" parent="2Ji5Jr_jotGqNG5A1SUb-60">
          <mxGeometry x="-0.0024" y="-2" relative="1" as="geometry">
            <mxPoint as="offset" />
          </mxGeometry>
        </mxCell>
        <mxCell id="2Ji5Jr_jotGqNG5A1SUb-56" value="" style="shape=cylinder3;whiteSpace=wrap;html=1;boundedLbl=1;backgroundOutline=1;size=15;fillColor=none;" vertex="1" parent="1">
          <mxGeometry x="1610" y="-295" width="60" height="80" as="geometry" />
        </mxCell>
        <mxCell id="2Ji5Jr_jotGqNG5A1SUb-71" style="edgeStyle=orthogonalEdgeStyle;rounded=0;orthogonalLoop=1;jettySize=auto;html=1;" edge="1" parent="1" source="2Ji5Jr_jotGqNG5A1SUb-62" target="2Ji5Jr_jotGqNG5A1SUb-69">
          <mxGeometry relative="1" as="geometry" />
        </mxCell>
        <mxCell id="2Ji5Jr_jotGqNG5A1SUb-62" value="拒绝策略" style="rounded=0;whiteSpace=wrap;html=1;fillColor=none;" vertex="1" parent="1">
          <mxGeometry x="1305" y="-35" width="90" height="50" as="geometry" />
        </mxCell>
        <mxCell id="2Ji5Jr_jotGqNG5A1SUb-69" value="用户-7" style="shape=umlActor;verticalLabelPosition=bottom;verticalAlign=top;html=1;outlineConnect=0;" vertex="1" parent="1">
          <mxGeometry x="1440" y="-40" width="30" height="60" as="geometry" />
        </mxCell>
        <mxCell id="2Ji5Jr_jotGqNG5A1SUb-70" style="edgeStyle=orthogonalEdgeStyle;rounded=0;orthogonalLoop=1;jettySize=auto;html=1;" edge="1" parent="1" source="2Ji5Jr_jotGqNG5A1SUb-26" target="2Ji5Jr_jotGqNG5A1SUb-62">
          <mxGeometry relative="1" as="geometry" />
        </mxCell>
        <mxCell id="2Ji5Jr_jotGqNG5A1SUb-73" value="&lt;b&gt;&lt;font style=&quot;&quot;&gt;等待队列已满&lt;/font&gt;&lt;/b&gt;" style="edgeLabel;html=1;align=center;verticalAlign=middle;resizable=0;points=[];fontColor=#FF0000;" vertex="1" connectable="0" parent="2Ji5Jr_jotGqNG5A1SUb-70">
          <mxGeometry x="-0.193" y="3" relative="1" as="geometry">
            <mxPoint x="2" y="3" as="offset" />
          </mxGeometry>
        </mxCell>
        <mxCell id="2Ji5Jr_jotGqNG5A1SUb-74" value="等待队列" style="text;html=1;align=center;verticalAlign=middle;resizable=0;points=[];autosize=1;strokeColor=none;fillColor=none;" vertex="1" parent="1">
          <mxGeometry x="1029" y="30" width="70" height="30" as="geometry" />
        </mxCell>
      </root>
    </mxGraphModel>
  </diagram>
</mxfile>
